<svg width="199" height="36" viewBox="0 0 199 36" fill="none" xmlns="http://www.w3.org/2000/svg">
<path d="M55.831 9V17.923C54.0602 16.671 52.1166 16.0449 50 16.0449C48.2041 16.0449 46.5449 16.4873 45.0195 17.3693C43.469 18.2764 42.2448 19.4978 41.3469 21.0337C40.449 22.5696 40 24.2306 40 26.0225C40 27.8393 40.4545 29.4948 41.3664 30.9918C42.2532 32.5387 43.4635 33.7602 45 34.6561C46.5365 35.552 48.2041 36 50 36C51.7708 36 53.4328 35.5576 54.9805 34.6756C56.531 33.7908 57.7552 32.6139 58.6531 31.142C59.551 29.6701 60 28.0619 60 26.3202L59.9637 9.00278L55.831 9ZM55.0558 28.9328C54.5148 29.8176 53.7953 30.5215 52.8974 31.0502C51.9994 31.5788 51.0346 31.8404 50 31.8404C48.918 31.8404 47.9448 31.5705 47.0859 31.0307C46.1991 30.516 45.4936 29.8093 44.9637 28.9133C44.4339 28.0174 44.1718 27.0547 44.1718 26.0225C44.1718 24.9429 44.4423 23.9719 44.9833 23.1149C45.4992 22.2301 46.2075 21.5262 47.1054 20.9975C48.0033 20.4689 48.9682 20.2073 50.0028 20.2073C51.0597 20.2073 52.0329 20.4661 52.9169 20.9808C53.8037 21.5206 54.5092 22.2385 55.039 23.1344C55.5689 24.0303 55.831 24.993 55.831 26.0252C55.831 27.0798 55.5717 28.048 55.0558 28.9328Z" fill="white"/>
<path d="M76.7119 17.3083C75.0986 16.437 73.3593 16 71.5 16C69.6143 16 67.8721 16.4426 66.2705 17.325C64.6425 18.2324 63.3571 19.4544 62.4142 20.991C61.4714 22.5275 61 24.1893 61 25.9819C61 27.7996 61.4773 29.4558 62.4347 30.9534C63.3659 32.501 64.6366 33.723 66.25 34.6193C67.8634 35.5157 69.6143 35.9638 71.5 35.9638C73.7224 35.9638 75.7632 35.3375 77.6226 34.0849V36H81.9619L82 25.6868C82 23.9443 81.5227 22.3243 80.5653 20.8239C79.6107 19.3514 78.3253 18.1795 76.7119 17.3083ZM76.8086 28.8907C76.2405 29.7759 75.4851 30.4802 74.5422 31.009C73.5994 31.5379 72.5863 31.8024 71.5 31.8024C70.3639 31.8024 69.342 31.5324 68.4402 30.9923C67.5091 30.4774 66.7683 29.7704 66.2119 28.874C65.6556 27.9777 65.3804 27.0146 65.3804 25.9819C65.3804 24.9019 65.6644 23.9304 66.2324 23.0731C66.7741 22.1879 67.5178 21.4836 68.4607 20.9548C69.4035 20.4259 70.4166 20.1642 71.5029 20.1642C72.6127 20.1642 73.6346 20.4231 74.5627 20.9381C75.4939 21.4781 76.2347 22.1962 76.791 23.0926C77.3473 23.9889 77.6226 24.952 77.6226 25.9847C77.6226 27.0369 77.3502 28.0083 76.8086 28.8907Z" fill="white"/>
<path d="M94 15.051H89.2183V9H84V36H89.2183V19.3215H94V15.051Z" fill="white"/>
<path d="M108.46 17.3083C106.77 16.437 104.948 16 103 16C101.025 16 99.1994 16.4426 97.5215 17.325C95.816 18.2324 94.4693 19.4544 93.4816 20.991C92.4939 22.5275 92 24.1893 92 25.9819C92 27.7996 92.5 29.4558 93.5031 30.9534C94.4785 32.501 95.8098 33.723 97.5 34.6193C99.1902 35.5157 101.025 35.9638 103 35.9638C105.328 35.9638 107.466 35.3375 109.414 34.0849V36H113.96L114 25.6868C114 23.9443 113.5 22.3243 112.497 20.8239C111.497 19.3514 110.153 18.1795 108.46 17.3083ZM108.561 28.8907C107.966 29.7759 107.175 30.4802 106.187 31.009C105.199 31.5379 104.138 31.8024 103 31.8024C101.81 31.8024 100.739 31.5324 99.7945 30.9923C98.819 30.4774 98.0429 29.7704 97.4601 28.874C96.8773 27.9777 96.589 27.0146 96.589 25.9819C96.589 24.9019 96.8865 23.9304 97.4816 23.0731C98.0491 22.1879 98.8282 21.4836 99.8159 20.9548C100.804 20.4259 101.865 20.1642 103.003 20.1642C104.166 20.1642 105.236 20.4231 106.209 20.9381C107.184 21.4781 107.96 22.1962 108.543 23.0926C109.126 23.9889 109.414 24.952 109.414 25.9847C109.414 27.0369 109.132 28.0083 108.561 28.8907Z" fill="white"/>
<path d="M122.182 20.9637C123.09 20.4339 124.065 20.1718 125.111 20.1718C126.355 20.1718 127.474 20.5176 128.47 21.2064C129.465 21.8951 130.173 22.7931 130.596 23.9002L135 23.9364C134.676 22.4612 134.041 21.1088 133.097 19.8762C132.127 18.6715 130.945 17.7234 129.552 17.0346C128.159 16.3458 126.679 16 125.111 16C123.295 16 121.618 16.4434 120.075 17.3274C118.508 18.2365 117.27 19.4607 116.362 21C115.454 22.5393 115 24.2041 115 26C115 27.821 115.46 29.4802 116.382 30.9805C117.278 32.531 118.502 33.7552 120.056 34.6531C121.609 35.551 123.295 36 125.111 36C126.727 36 128.221 35.657 129.589 34.9654C130.982 34.2766 132.152 33.3285 133.097 32.1238C134.041 30.9191 134.676 29.5666 135 28.0636H130.635C130.212 29.1707 129.496 30.0742 128.489 30.7769C127.483 31.4769 126.358 31.8282 125.111 31.8282C124.017 31.8282 123.033 31.5577 122.165 31.0167C121.268 30.5008 120.555 29.7925 120.019 28.8946C119.483 27.9967 119.218 27.0318 119.218 25.9972C119.218 24.9152 119.492 23.942 120.039 23.0831C120.558 22.1991 121.274 21.4936 122.182 20.9637Z" fill="white"/>
<path d="M150.416 17.0151C148.913 16.3374 147.458 16 146.053 16C143.983 16 142.087 16.5912 140.36 17.7708C138.634 18.9504 137.402 20.5008 136.665 22.4194C136.221 23.599 136 24.7814 136 25.961C136 27.9771 136.592 29.8595 137.774 31.6079C138.832 33.1835 140.109 34.3073 141.601 34.9849C143.092 35.6626 144.55 36 145.98 36C147.682 36 149.282 35.5929 150.785 34.7814C152.288 33.9699 153.494 32.8628 154.408 31.4601L150.38 29.9096C149.838 30.5259 149.179 30.9972 148.402 31.3291C147.626 31.6609 146.818 31.8282 145.98 31.8282C145.24 31.8282 144.55 31.7055 143.911 31.4601C143.123 31.1645 142.433 30.7156 141.841 30.1132C141.249 29.5109 140.804 28.8026 140.511 27.9911L155.813 27.5839V27.5477L155.888 27.5839C155.961 27.068 156 26.5382 156 25.9972C156 23.981 155.422 22.0987 154.263 20.3503C153.201 18.8054 151.919 17.6927 150.416 17.0151ZM140.475 24.1567L140.547 23.9364C140.992 22.7791 141.718 21.87 142.729 21.2064C143.74 20.5427 144.849 20.2108 146.056 20.2108C146.796 20.2108 147.486 20.3335 148.126 20.5789C148.913 20.8745 149.598 21.3095 150.176 21.8896C150.754 22.4696 151.179 23.1389 151.453 23.9002L140.475 24.1567Z" fill="white"/>
<path d="M172.727 17.2982C171.1 16.3979 169.358 15.9478 167.499 15.9478C165.227 15.9478 163.186 16.5881 161.377 17.8714V9H157.038L157 26.2703C157 28.0457 157.477 29.6617 158.435 31.1156C159.389 32.6198 160.674 33.8108 162.29 34.6859C163.906 35.561 165.642 36 167.501 36C169.413 36 171.17 35.5443 172.771 34.63C174.373 33.7409 175.643 32.5275 176.586 30.987C177.529 29.4464 178 27.7745 178 25.9739C178 24.1733 177.535 22.4958 176.606 20.9413C175.646 19.4147 174.355 18.1985 172.727 17.2982ZM172.572 28.7502C172.031 29.6142 171.313 30.2908 170.423 30.7856C169.533 31.2777 168.558 31.5266 167.499 31.5266C166.465 31.5266 165.496 31.2805 164.594 30.7856C163.69 30.2936 162.981 29.6198 162.463 28.7698C161.948 27.9198 161.687 26.9888 161.687 25.9767C161.687 24.9646 161.945 24.028 162.463 23.164C162.981 22.3001 163.684 21.6235 164.574 21.1286C165.464 20.6365 166.439 20.3877 167.499 20.3877C168.558 20.3877 169.539 20.6337 170.444 21.1286C171.348 21.6459 172.057 22.3308 172.575 23.1808C173.09 24.0308 173.351 24.9618 173.351 25.9739C173.348 26.9609 173.087 27.8863 172.572 28.7502Z" fill="white"/>
<path d="M197.67 20.9805C196.761 19.4551 195.528 18.2448 193.98 17.3469C192.43 16.449 190.771 16 189 16C187.204 16 185.545 16.4434 184.02 17.3274C182.469 18.2365 181.245 19.4607 180.347 21C179.449 22.5393 179 24.2041 179 26C179 27.821 179.455 29.4802 180.366 30.9805C181.253 32.531 182.463 33.7552 184 34.6531C185.537 35.551 187.204 36 189 36C190.821 36 192.494 35.5455 194.02 34.6336C195.545 33.7468 196.755 32.5365 197.653 31C198.551 29.4635 199 27.7959 199 26C199 24.2041 198.557 22.531 197.67 20.9805ZM193.796 28.7663C193.306 29.628 192.634 30.3028 191.786 30.7964C190.938 31.2872 190.009 31.5354 189 31.5354C188.016 31.5354 187.093 31.29 186.234 30.7964C185.372 30.3056 184.697 29.6336 184.204 28.7858C183.713 27.9381 183.465 27.0095 183.465 26C183.465 24.9905 183.71 24.0563 184.204 23.1946C184.697 22.333 185.366 21.6637 186.214 21.184C187.062 20.7044 187.991 20.4646 189 20.4646C190.009 20.4646 190.944 20.71 191.805 21.2036C192.667 21.6944 193.336 22.3664 193.816 23.2142C194.296 24.0619 194.535 24.9905 194.535 26C194.533 26.9816 194.287 27.9046 193.796 28.7663Z" fill="white"/>
<path d="M21.0641 19.1373H27C26.9591 18.9384 26.911 18.7836 26.8605 18.5871C26.3915 16.7596 25.5834 15.0696 24.4313 13.5197C23.8541 12.7779 23.2215 12.1048 22.5313 11.5079C22.2114 11.2255 21.8819 10.9651 21.5379 10.717C21.4995 10.6875 21.461 10.6605 21.4225 10.6335C21.3648 10.5917 21.3071 10.55 21.2469 10.5107C21.1868 10.4665 21.1243 10.4247 21.0641 10.3829C21.0425 10.3658 21.016 10.351 20.992 10.3363C20.9872 10.3338 20.9848 10.3314 20.98 10.3289C20.5518 10.0489 20.1093 9.79343 19.6475 9.55762C19.5489 9.50849 19.4527 9.45937 19.3541 9.4127C19.2555 9.36603 19.1569 9.31936 19.0583 9.27514C19.0053 9.25058 18.9524 9.22847 18.9019 9.20636C18.8947 9.20391 18.8851 9.199 18.8779 9.19654C18.7745 9.15232 18.6734 9.11057 18.5748 9.07127C18.5123 9.0467 18.4498 9.02214 18.3872 8.99758C18.3271 8.97301 18.267 8.95091 18.2068 8.9288C18.0313 8.86493 17.8605 8.80598 17.7018 8.7544C17.555 8.70773 17.4156 8.66351 17.2905 8.62667C17.2761 8.62176 17.2592 8.61685 17.2448 8.61193C17.2183 8.60456 17.1943 8.59719 17.1678 8.59228C17.1149 8.57754 17.0668 8.56281 17.0187 8.55052C16.9441 8.53087 16.8744 8.51368 16.8143 8.49648C16.8119 8.49648 16.8119 8.49648 16.8095 8.49648C16.7133 8.47192 16.6363 8.45473 16.581 8.44244C16.5473 8.43508 16.5208 8.42771 16.504 8.42525C16.4944 8.42279 16.4872 8.42034 16.4776 8.42034C15.6839 8.24348 14.8733 8.14523 14.0436 8.12312C14.0267 8.12312 14.0123 8.12067 13.9955 8.12067C13.8824 8.11821 13.7694 8.11575 13.6539 8.11575C11.2007 8.11575 8.93506 8.73721 6.85462 9.96783C5.2985 10.9012 3.9853 12.0704 2.91261 13.4755C2.52298 13.9815 2.16702 14.5194 1.83993 15.0868C0.613308 17.2312 0 19.5549 0 22.0554C0 23.1657 0.120257 24.2342 0.358364 25.2585C0.363175 25.288 0.372795 25.3174 0.380011 25.3469C0.380011 25.3518 0.382416 25.3543 0.382416 25.3592C0.387226 25.3739 0.389631 25.3887 0.394441 25.4034C0.406467 25.4525 0.420898 25.5017 0.435329 25.5483C0.55318 26.0175 0.697488 26.4768 0.868252 26.9263C0.954837 27.1597 1.04864 27.3906 1.15206 27.619C1.19054 27.7025 1.22902 27.7885 1.26991 27.872C1.28193 27.9015 1.29396 27.9285 1.30839 27.958L1.3108 27.9605C1.47675 28.3117 1.66435 28.6581 1.86638 28.9995C3.07376 31.1635 4.72608 32.8731 6.82576 34.1209C8.92544 35.3737 11.2007 36 13.6539 36C15.8354 36 17.8485 35.5186 19.6956 34.5606C21.5764 33.6027 23.1566 32.2762 24.4313 30.5986C25.7084 28.916 26.5623 27.0344 27 24.9392H24.3423C22.6082 24.9392 20.9487 25.7277 19.876 27.1204C19.4166 27.7197 18.8634 28.2528 18.2092 28.7219C17.1919 29.449 16.0855 29.9108 14.8878 30.0926C14.8854 30.0926 14.8854 30.0926 14.8829 30.095C14.7843 30.1098 14.6857 30.122 14.5871 30.1343C14.3827 30.1589 14.1758 30.1736 13.9666 30.181C13.8632 30.1834 13.7598 30.1859 13.6539 30.1859C13.5577 30.1859 13.4639 30.1834 13.3701 30.181C13.2835 30.1785 13.197 30.1736 13.1104 30.1687C11.8477 30.0852 10.7028 29.7167 9.67344 29.056C8.46366 28.3363 7.49679 27.3464 6.77766 26.0986C6.75361 26.0568 6.72956 26.015 6.70791 25.9733C6.7031 25.9684 6.70069 25.9635 6.69829 25.9586C6.02726 24.7451 5.69295 23.4433 5.69295 22.0554C5.69295 20.5497 6.06333 19.1963 6.80171 17.9951C7.50641 16.7645 8.47328 15.7746 9.69749 15.0352C10.9217 14.3008 12.2397 13.9299 13.6539 13.9299C14.2889 13.9299 14.8998 13.9987 15.4842 14.1387C15.5299 14.1485 15.5732 14.1583 15.6189 14.1706C15.732 14.2001 15.8474 14.232 15.958 14.264C15.9869 14.2713 16.0158 14.2836 16.0446 14.2934C16.5762 14.4605 17.0861 14.6889 17.5767 14.9763C17.7908 15.1016 17.9952 15.2342 18.1852 15.3693C18.2573 15.4209 18.3271 15.4725 18.3968 15.5265C18.4233 15.5462 18.4498 15.5683 18.4762 15.5879C18.5219 15.6223 18.5652 15.6567 18.6061 15.6935C18.6494 15.7255 18.6927 15.7599 18.7336 15.7992C19.6595 16.5778 20.3715 17.521 20.8573 18.6289C20.8765 18.6731 20.8958 18.7124 20.9126 18.7517C20.9294 18.7934 20.9463 18.8352 20.9631 18.872C20.9751 18.904 20.9896 18.9359 20.9992 18.9629C21.0112 18.9924 21.0208 19.017 21.0281 19.0366C21.0353 19.0538 21.0401 19.0685 21.0449 19.0808L21.0641 19.1373Z" fill="url(#paint0_linear)"/>
<path opacity="0.18" d="M20.9126 18.7516C20.8957 18.7123 20.8765 18.673 20.8572 18.6288C20.3714 17.521 19.6595 16.5778 18.7335 15.7991C18.6902 15.7623 18.6493 15.7279 18.606 15.6935C18.5652 15.6566 18.5219 15.6223 18.4762 15.5879C18.4497 15.5682 18.4232 15.5461 18.3968 15.5265C18.327 15.4724 18.2573 15.4208 18.1851 15.3693C17.9951 15.2342 17.7907 15.1015 17.5766 14.9762C17.2351 14.7797 16.8623 14.6029 16.4583 14.4555C16.4559 14.4555 16.4559 14.453 16.4534 14.453C16.148 14.3376 15.8233 14.2393 15.4794 14.1607L15.4842 14.1386L15.4866 14.1141L16.4703 8.4645L16.4775 8.42029C16.4775 8.42029 16.4871 8.42274 16.504 8.4252C16.5208 8.42766 16.5472 8.43503 16.5809 8.4424C16.6362 8.45468 16.7132 8.47187 16.8094 8.49643C16.8118 8.49643 16.8118 8.49643 16.8142 8.49643C16.8743 8.51363 16.9441 8.53082 17.0187 8.55047C17.0668 8.56276 17.1149 8.57749 17.1678 8.59223C17.2063 8.60451 17.2471 8.61434 17.2904 8.62662C17.4155 8.66347 17.555 8.70768 17.7017 8.75435C17.8604 8.80593 18.0312 8.86488 18.2068 8.92875C18.2669 8.95086 18.327 8.97296 18.3872 8.99753C18.4497 9.02209 18.5122 9.04665 18.5748 9.07122C18.6734 9.11052 18.7744 9.15228 18.8778 9.19649C18.885 9.19895 18.8947 9.20386 18.9019 9.20631C18.9524 9.22842 19.0053 9.25053 19.0582 9.27509C19.1568 9.31931 19.2554 9.36598 19.354 9.41265C19.8808 9.65828 20.4363 9.96041 20.9799 10.3289C20.9847 10.3313 20.9871 10.3338 20.9919 10.3362C21.016 10.351 21.0424 10.3657 21.0641 10.3829V10.3854L21.2613 10.7145L21.0761 18.6214L21.0641 19.1373C21.0617 19.1274 21.0497 19.0931 21.0448 19.0808C21.04 19.0685 21.0352 19.0538 21.028 19.0366C21.0208 19.0169 21.0112 18.9923 20.9991 18.9629C20.9895 18.9358 20.9751 18.9039 20.9631 18.872" fill="url(#paint1_linear)"/>
<path d="M21.0641 19.1373H26.9999V0L24.3423 1.30677C22.3364 2.29421 21.0641 4.3649 21.0641 6.63701V19.1373Z" fill="url(#paint2_linear)"/>
<defs>
<linearGradient id="paint0_linear" x1="0" y1="22.0575" x2="27" y2="22.0575" gradientUnits="userSpaceOnUse">
<stop stop-color="#01DFC8"/>
<stop offset="1" stop-color="#03AFF1"/>
</linearGradient>
<linearGradient id="paint1_linear" x1="15.4794" y1="13.7784" x2="21.2613" y2="13.7784" gradientUnits="userSpaceOnUse">
<stop stop-color="#01DFC8" stop-opacity="0.3"/>
<stop offset="1"/>
</linearGradient>
<linearGradient id="paint2_linear" x1="30.1808" y1="5.38308" x2="18.726" y2="16.5992" gradientUnits="userSpaceOnUse">
<stop offset="0.3786" stop-color="#01DFC8"/>
<stop offset="0.7139" stop-color="#02C7DD"/>
<stop offset="1" stop-color="#03AFF1"/>
</linearGradient>
</defs>
</svg>
