<svg width="294" height="50" class="w-full" viewBox="0 0 294 50" fill="none" xmlns="http://www.w3.org/2000/svg">
<path d="M29.2874 0V16.5241C26.0114 14.2055 22.4156 13.0462 18.5 13.0462C15.1776 13.0462 12.1081 13.8654 9.28611 15.4988C6.41774 17.1785 4.15296 19.4404 2.49177 22.2846C0.830591 25.1288 0 28.2049 0 31.5231C0 34.8877 0.840909 37.9534 2.52789 40.7255C4.16843 43.5903 6.40742 45.8522 9.25 47.5113C12.0926 49.1704 15.1776 50 18.5 50C21.7759 50 24.8507 49.1807 27.7139 47.5474C30.5823 45.9089 32.847 43.7294 34.5082 41.0037C36.1694 38.278 37 35.2999 37 32.0744L36.9329 0.00515263L29.2874 0ZM27.8532 36.9126C26.8523 38.5511 25.5213 39.8547 23.8602 40.8337C22.199 41.8127 20.414 42.297 18.5 42.297C16.4983 42.297 14.6979 41.7972 13.1089 40.7976C11.4683 39.8444 10.1631 38.5357 9.18293 36.8765C8.20273 35.2174 7.71779 33.4347 7.71779 31.5231C7.71779 29.5239 8.21821 27.7257 9.21905 26.1387C10.1735 24.5002 11.4838 23.1966 13.145 22.2176C14.8062 21.2387 16.5912 20.7543 18.5052 20.7543C20.4604 20.7543 22.2609 21.2335 23.8963 22.1867C25.5368 23.1863 26.842 24.5157 27.8222 26.1748C28.8024 27.8339 29.2874 29.6167 29.2874 31.5282C29.2874 33.481 28.8076 35.2741 27.8532 36.9126Z" fill="white"/>
<path d="M68.1793 15.4203C65.1831 13.8085 61.953 13 58.5 13C54.998 13 51.7625 13.8188 48.7881 15.4512C45.7646 17.13 43.3774 19.3907 41.6265 22.2333C39.8755 25.0759 39 28.1502 39 31.4665C39 34.8292 39.8864 37.8932 41.6645 40.6637C43.3937 43.5269 45.7538 45.7876 48.75 47.4458C51.7462 49.104 54.998 49.9331 58.5 49.9331C62.6273 49.9331 66.4175 48.7744 69.8705 46.4571V50H77.9293L78 30.9207C78 27.697 77.1136 24.6999 75.3355 21.9243C73.5627 19.2001 71.1755 17.0321 68.1793 15.4203ZM68.3587 36.8479C67.3038 38.4855 65.9009 39.7883 64.1499 40.7667C62.3989 41.7452 60.5174 42.2344 58.5 42.2344C56.3901 42.2344 54.4923 41.7349 52.8175 40.7358C51.0883 39.7832 49.7125 38.4752 48.6793 36.817C47.6461 35.1588 47.135 33.377 47.135 31.4665C47.135 29.4685 47.6624 27.6713 48.7174 26.0852C49.7234 24.4476 51.1046 23.1447 52.8555 22.1663C54.6065 21.1879 56.488 20.7038 58.5054 20.7038C60.5664 20.7038 62.4642 21.1827 64.188 22.1354C65.9172 23.1344 67.2929 24.463 68.3261 26.1212C69.3593 27.7794 69.8705 29.5612 69.8705 31.4717C69.8705 33.4182 69.3647 35.2154 68.3587 36.8479Z" fill="white"/>
<path d="M100 11.2056H90.9148V0H81V50H90.9148V19.1139H100V11.2056Z" fill="white"/>
<path d="M126.676 15.4203C123.526 13.8085 120.13 13 116.5 13C112.818 13 109.417 13.8188 106.29 15.4512C103.112 17.13 100.602 19.3907 98.7612 22.2333C96.9204 25.0759 96 28.1502 96 31.4665C96 34.8292 96.9318 37.8932 98.8012 40.6637C100.619 43.5269 103.1 45.7876 106.25 47.4458C109.4 49.104 112.818 49.9331 116.5 49.9331C120.839 49.9331 124.823 48.7744 128.454 46.4571V50H136.926L137 30.9207C137 27.697 136.068 24.6999 134.199 21.9243C132.335 19.2001 129.831 17.0321 126.676 15.4203ZM126.864 36.8479C125.755 38.4855 124.28 39.7883 122.44 40.7667C120.599 41.7452 118.621 42.2344 116.5 42.2344C114.282 42.2344 112.287 41.7349 110.526 40.7358C108.708 39.7832 107.262 38.4752 106.176 36.817C105.09 35.1588 104.552 33.377 104.552 31.4665C104.552 29.4685 105.107 27.6713 106.216 26.0852C107.273 24.4476 108.725 23.1447 110.566 22.1663C112.407 21.1879 114.385 20.7038 116.506 20.7038C118.672 20.7038 120.667 21.1827 122.48 22.1354C124.298 23.1344 125.744 24.463 126.83 26.1212C127.916 27.7794 128.454 29.5612 128.454 31.4717C128.454 33.4182 127.928 35.2154 126.864 36.8479Z" fill="white"/>
<path d="M152.286 22.1829C153.966 21.2027 155.771 20.7178 157.706 20.7178C160.006 20.7178 162.077 21.3575 163.919 22.6318C165.76 23.906 167.07 25.5672 167.852 27.6153L176 27.6824C175.4 24.9533 174.226 22.4512 172.479 20.1709C170.684 17.9423 168.499 16.1882 165.922 14.914C163.345 13.6397 160.606 13 157.706 13C154.347 13 151.243 13.8203 148.39 15.4557C145.489 17.1375 143.199 19.4023 141.52 22.25C139.84 25.0977 139 28.1776 139 31.5C139 34.8688 139.85 37.9384 141.556 40.7139C143.215 43.5823 145.479 45.847 148.353 47.5082C151.227 49.1694 154.347 50 157.706 50C160.695 50 163.46 49.3654 165.99 48.086C168.567 46.8118 170.731 45.0577 172.479 42.8291C174.226 40.6004 175.4 38.0983 176 35.3176H167.925C167.143 37.3657 165.818 39.0372 163.955 40.3373C162.093 41.6322 160.012 42.2822 157.706 42.2822C155.682 42.2822 153.862 41.7818 152.255 40.781C150.596 39.8265 149.276 38.5162 148.285 36.855C147.294 35.1938 146.804 33.4088 146.804 31.4948C146.804 29.4932 147.31 27.6927 148.322 26.1037C149.282 24.4683 150.607 23.1631 152.286 22.1829Z" fill="white"/>
<path d="M204.67 14.8779C201.89 13.6242 199.197 13 196.598 13C192.769 13 189.26 14.0937 186.067 16.2759C182.873 18.4582 180.594 21.3265 179.23 24.8759C178.408 27.0581 178 29.2455 178 31.4278C178 35.1577 179.096 38.64 181.281 41.8747C183.24 44.7895 185.602 46.8685 188.361 48.1221C191.121 49.3758 193.818 50 196.464 50C199.611 50 202.572 49.2468 205.352 47.7455C208.132 46.2443 210.365 44.1962 212.054 41.6012L204.603 38.7328C203.6 39.873 202.381 40.7448 200.944 41.3588C199.508 41.9727 198.014 42.2822 196.464 42.2822C195.094 42.2822 193.818 42.0552 192.635 41.6012C191.177 41.0544 189.901 40.2238 188.805 39.1095C187.71 37.9951 186.888 36.6847 186.346 35.1835L214.654 34.4303V34.3632L214.793 34.4303C214.928 33.4759 215 32.4957 215 31.4948C215 27.7649 213.93 24.2826 211.786 21.048C209.822 18.1899 207.45 16.1315 204.67 14.8779ZM186.279 28.0899L186.413 27.6824C187.235 25.5414 188.578 23.8596 190.449 22.6318C192.319 21.4039 194.371 20.79 196.603 20.79C197.973 20.79 199.249 21.017 200.433 21.471C201.89 22.0178 203.156 22.8226 204.226 23.8957C205.295 24.9688 206.081 26.2069 206.587 27.6153L186.279 28.0899Z" fill="white"/>
<path d="M246.208 15.3671C243.185 13.6999 239.95 12.8663 236.497 12.8663C232.278 12.8663 228.489 14.052 225.128 16.4285V0H217.071L217 31.982C217 35.2698 217.886 38.2624 219.664 40.9547C221.437 43.7403 223.824 45.9459 226.825 47.5665C229.826 49.1871 233.05 50 236.503 50C240.053 50 243.315 49.1561 246.289 47.463C249.263 45.8165 251.623 43.5694 253.374 40.7166C255.125 37.8637 256 34.7675 256 31.4332C256 28.0988 255.136 24.9922 253.412 22.1135C251.629 19.2865 249.231 17.0343 246.208 15.3671ZM245.92 36.5745C244.914 38.1744 243.582 39.4274 241.929 40.3438C240.276 41.255 238.465 41.7159 236.497 41.7159C234.578 41.7159 232.778 41.2602 231.104 40.3438C229.424 39.4325 228.108 38.1847 227.146 36.6107C226.189 35.0368 225.705 33.3126 225.705 31.4383C225.705 29.564 226.183 27.8296 227.146 26.2297C228.108 24.6298 229.413 23.3768 231.066 22.4604C232.719 21.5491 234.529 21.0883 236.497 21.0883C238.465 21.0883 240.287 21.544 241.967 22.4604C243.647 23.4182 244.963 24.6868 245.925 26.2607C246.882 27.8347 247.366 29.5589 247.366 31.4332C247.361 33.2608 246.877 34.9746 245.92 36.5745Z" fill="white"/>
<path d="M291.539 22.2139C289.857 19.3919 287.577 17.153 284.714 15.4918C281.846 13.8306 278.776 13 275.5 13C272.178 13 269.108 13.8203 266.286 15.4557C263.418 17.1375 261.153 19.4023 259.492 22.25C257.831 25.0977 257 28.1776 257 31.5C257 34.8688 257.841 37.9384 259.528 40.7139C261.168 43.5823 263.407 45.847 266.25 47.5082C269.093 49.1694 272.178 50 275.5 50C278.869 50 281.964 49.1591 284.786 47.4721C287.608 45.8316 289.847 43.5926 291.508 40.75C293.169 37.9074 294 34.8224 294 31.5C294 28.1776 293.18 25.0823 291.539 22.2139ZM284.373 36.6177C283.465 38.2118 282.222 39.4603 280.654 40.3734C279.085 41.2814 277.368 41.7405 275.5 41.7405C273.679 41.7405 271.971 41.2865 270.382 40.3734C268.788 39.4654 267.54 38.2221 266.627 36.6538C265.719 35.0855 265.259 33.3675 265.259 31.5C265.259 29.6325 265.713 27.9042 266.627 26.3101C267.54 24.716 268.778 23.4778 270.346 22.5905C271.915 21.7031 273.632 21.2595 275.5 21.2595C277.368 21.2595 279.096 21.7135 280.69 22.6266C282.284 23.5346 283.522 24.7779 284.409 26.3462C285.297 27.9145 285.741 29.6325 285.741 31.5C285.735 33.316 285.281 35.0236 284.373 36.6177Z" fill="white"/>
</svg>
