<svg width="132" height="176" class="w-full" viewBox="0 0 132 176" fill="none" xmlns="http://www.w3.org/2000/svg">
<path d="M102.785 93.3369H131.75C131.55 92.3654 131.316 91.6099 131.069 90.6505C128.781 81.7279 124.837 73.4769 119.216 65.9094C116.399 62.2876 113.313 59.0016 109.944 56.0874C108.383 54.7082 106.775 53.437 105.097 52.2257C104.909 52.0818 104.722 51.9499 104.534 51.818C104.252 51.6141 103.971 51.4102 103.677 51.2183C103.384 51.0024 103.079 50.7986 102.785 50.5947C102.68 50.5107 102.55 50.4388 102.433 50.3668C102.41 50.3548 102.398 50.3428 102.374 50.3309C100.285 48.9637 98.1259 47.7164 95.8726 46.5651C95.3914 46.3253 94.922 46.0854 94.4408 45.8576C93.9596 45.6297 93.4784 45.4018 92.9972 45.186C92.739 45.066 92.4809 44.9581 92.2344 44.8502C92.1992 44.8382 92.1522 44.8142 92.117 44.8022C91.6124 44.5863 91.1195 44.3825 90.6383 44.1906C90.3331 44.0706 90.028 43.9507 89.7229 43.8308C89.4295 43.7109 89.136 43.6029 88.8426 43.495C87.9859 43.1832 87.1526 42.8954 86.3781 42.6435C85.6621 42.4156 84.9815 42.1998 84.3712 42.0199C84.3008 41.9959 84.2186 41.9719 84.1482 41.9479C84.0191 41.9119 83.9017 41.876 83.7726 41.852C83.5144 41.78 83.2797 41.7081 83.045 41.6481C82.6812 41.5522 82.3408 41.4682 82.0474 41.3843C82.0357 41.3843 82.0357 41.3843 82.0239 41.3843C81.5545 41.2643 81.1789 41.1804 80.909 41.1204C80.7447 41.0844 80.6156 41.0485 80.5335 41.0365C80.4865 41.0245 80.4513 41.0125 80.4044 41.0125C76.5314 40.149 72.5763 39.6693 68.5274 39.5614C68.4452 39.5614 68.3748 39.5494 68.2926 39.5494C67.7411 39.5374 67.1895 39.5254 66.6261 39.5254C54.6552 39.5254 43.5998 42.5596 33.448 48.5679C25.8547 53.1252 19.4468 58.8337 14.2125 65.6936C12.3112 68.1641 10.5743 70.7905 8.97815 73.5608C2.99272 84.0305 0 95.3756 0 107.584C0 113.005 0.586807 118.222 1.74869 123.223C1.77216 123.367 1.8191 123.511 1.85431 123.655C1.85431 123.679 1.86605 123.69 1.86605 123.714C1.88952 123.786 1.90126 123.858 1.92473 123.93C1.98341 124.17 2.05383 124.41 2.12424 124.638C2.69931 126.929 3.40348 129.171 4.23675 131.366C4.65925 132.505 5.11696 133.632 5.62161 134.748C5.80939 135.156 5.99717 135.575 6.19669 135.983C6.25537 136.127 6.31405 136.259 6.38446 136.403L6.3962 136.415C7.206 138.13 8.12142 139.821 9.10725 141.488C14.9988 152.053 23.0615 160.4 33.3072 166.493C43.5528 172.609 54.6552 175.667 66.6261 175.667C77.2708 175.667 87.094 173.316 96.1073 168.639C105.285 163.962 112.996 157.486 119.216 149.295C125.448 141.08 129.614 131.894 131.75 121.664H118.782C110.32 121.664 102.222 125.513 96.9875 132.313C94.7459 135.24 92.0466 137.842 88.8544 140.133C83.89 143.682 78.4914 145.937 72.6468 146.825C72.635 146.825 72.635 146.825 72.6233 146.836C72.1421 146.908 71.6609 146.968 71.1797 147.028C70.1822 147.148 69.1729 147.22 68.1518 147.256C67.6472 147.268 67.1425 147.28 66.6261 147.28C66.1567 147.28 65.699 147.268 65.2412 147.256C64.8187 147.244 64.3962 147.22 63.9737 147.196C57.8123 146.789 52.2259 144.99 47.2028 141.764C41.2995 138.25 36.5816 133.417 33.0725 127.324C32.9551 127.12 32.8377 126.917 32.7321 126.713C32.7086 126.689 32.6969 126.665 32.6852 126.641C29.4108 120.716 27.7795 114.36 27.7795 107.584C27.7795 100.233 29.5868 93.6247 33.1898 87.7602C36.6285 81.7519 41.3465 76.9188 47.3202 73.309C53.2938 69.7231 59.7253 67.9122 66.6261 67.9122C69.7245 67.9122 72.7054 68.248 75.5573 68.9316C75.7803 68.9796 75.9916 69.0275 76.2146 69.0875C76.7662 69.2314 77.3295 69.3873 77.8693 69.5432C78.0102 69.5792 78.151 69.6392 78.2918 69.6871C80.8855 70.5027 83.3736 71.618 85.7678 73.0211C86.8123 73.6328 87.8099 74.2804 88.737 74.94C89.0891 75.1918 89.4295 75.4437 89.7698 75.7075C89.8989 75.8035 90.028 75.9114 90.1571 76.0073C90.3801 76.1752 90.5913 76.3431 90.7908 76.523C91.0021 76.6789 91.2133 76.8468 91.4129 77.0387C95.9313 80.8404 99.4052 85.4456 101.776 90.8543C101.87 91.0702 101.964 91.2621 102.046 91.454C102.128 91.6579 102.21 91.8617 102.292 92.0416C102.351 92.1975 102.421 92.3534 102.468 92.4854C102.527 92.6293 102.574 92.7492 102.609 92.8451C102.644 92.9291 102.668 93.0011 102.691 93.061L102.785 93.3369Z" fill="url(#paint0_linear)"/>
<path opacity="0.18" d="M101.548 91.4267C101.468 91.2334 101.377 91.0401 101.286 90.8227C98.9793 85.3752 95.5997 80.7369 91.2039 76.9079C90.9984 76.7267 90.8043 76.5576 90.5987 76.3885C90.4046 76.2073 90.1991 76.0382 89.9822 75.8691C89.8566 75.7725 89.731 75.6638 89.6054 75.5671C89.2743 75.3014 88.9432 75.0478 88.6007 74.7941C87.6987 74.1298 86.7282 73.4775 85.712 72.8615C84.0907 71.8952 82.321 71.0255 80.4028 70.3008C80.3914 70.3008 80.3914 70.2887 80.38 70.2887C78.93 69.721 77.3886 69.2378 75.7559 68.8513L75.7787 68.7426L75.7901 68.6218L80.4599 40.8405L80.4942 40.623C80.4942 40.623 80.5398 40.6351 80.6198 40.6472C80.6997 40.6593 80.8253 40.6955 80.9851 40.7318C81.2477 40.7922 81.6131 40.8767 82.0698 40.9975C82.0812 40.9975 82.0812 40.9975 82.0926 40.9975C82.3781 41.082 82.7092 41.1666 83.0631 41.2632C83.2915 41.3236 83.5198 41.3961 83.771 41.4686C83.9537 41.529 84.1478 41.5773 84.3533 41.6377C84.947 41.8189 85.6092 42.0363 86.3057 42.2658C87.0593 42.5194 87.8699 42.8093 88.7034 43.1234C88.9889 43.2321 89.2743 43.3408 89.5597 43.4616C89.8566 43.5824 90.1535 43.7032 90.4503 43.8239C90.9184 44.0172 91.398 44.2225 91.8889 44.44C91.9232 44.452 91.9688 44.4762 92.0031 44.4883C92.2429 44.597 92.4941 44.7057 92.7452 44.8265C93.2134 45.0439 93.6815 45.2734 94.1496 45.5029C96.6501 46.7108 99.2875 48.1965 101.868 50.0083C101.891 50.0204 101.902 50.0325 101.925 50.0445C102.039 50.117 102.165 50.1895 102.268 50.274V50.2861L103.204 51.9047L102.325 90.7865L102.268 93.323C102.256 93.2747 102.199 93.1056 102.176 93.0452C102.153 92.9848 102.131 92.9124 102.096 92.8278C102.062 92.7312 102.016 92.6104 101.959 92.4654C101.914 92.3326 101.845 92.1756 101.788 92.0185" fill="url(#paint1_linear)"/>
<path d="M103.205 93.3229H131.751V0L118.97 6.37245C109.324 11.1877 103.205 21.2854 103.205 32.3654V93.3229Z" fill="url(#paint2_linear)"/>
<defs>
<linearGradient id="paint0_linear" x1="0" y1="107.594" x2="131.75" y2="107.594" gradientUnits="userSpaceOnUse">
<stop stop-color="#01DFC8"/>
<stop offset="1" stop-color="#03AFF1"/>
</linearGradient>
<linearGradient id="paint1_linear" x1="75.7559" y1="66.9712" x2="103.204" y2="66.9712" gradientUnits="userSpaceOnUse">
<stop stop-color="#01DFC8" stop-opacity="0.3"/>
<stop offset="1"/>
</linearGradient>
<linearGradient id="paint2_linear" x1="147.048" y1="26.2506" x2="91.2102" y2="80.1682" gradientUnits="userSpaceOnUse">
<stop offset="0.3786" stop-color="#01DFC8"/>
<stop offset="0.7139" stop-color="#02C7DD"/>
<stop offset="1" stop-color="#03AFF1"/>
</linearGradient>
</defs>
</svg>
