<svg width="459" height="331" viewBox="0 0 459 331" fill="none" xmlns="http://www.w3.org/2000/svg">
<path d="M112.287 193V209.524C109.011 207.205 105.416 206.046 101.5 206.046C98.1776 206.046 95.1081 206.865 92.2861 208.499C89.4177 210.178 87.153 212.44 85.4918 215.285C83.8306 218.129 83 221.205 83 224.523C83 227.888 83.8409 230.953 85.5279 233.725C87.1684 236.59 89.4074 238.852 92.25 240.511C95.0926 242.17 98.1776 243 101.5 243C104.776 243 107.851 242.181 110.714 240.547C113.582 238.909 115.847 236.729 117.508 234.004C119.169 231.278 120 228.3 120 225.074L119.933 193.005L112.287 193ZM110.853 229.913C109.852 231.551 108.521 232.855 106.86 233.834C105.199 234.813 103.414 235.297 101.5 235.297C99.4983 235.297 97.6979 234.797 96.1089 233.798C94.4683 232.844 93.1631 231.536 92.1829 229.877C91.2027 228.217 90.7178 226.435 90.7178 224.523C90.7178 222.524 91.2182 220.726 92.219 219.139C93.1735 217.5 94.4838 216.197 96.145 215.218C97.8062 214.239 99.5912 213.754 101.505 213.754C103.46 213.754 105.261 214.234 106.896 215.187C108.537 216.186 109.842 217.516 110.822 219.175C111.802 220.834 112.287 222.617 112.287 224.528C112.287 226.481 111.808 228.274 110.853 229.913Z" fill="white"/>
<path d="M151.179 208.42C148.183 206.808 144.953 206 141.5 206C137.998 206 134.763 206.819 131.788 208.451C128.765 210.13 126.377 212.391 124.626 215.233C122.875 218.076 122 221.15 122 224.467C122 227.829 122.886 230.893 124.665 233.664C126.394 236.527 128.754 238.788 131.75 240.446C134.746 242.104 137.998 242.933 141.5 242.933C145.627 242.933 149.417 241.774 152.87 239.457V243H160.929L161 223.921C161 220.697 160.114 217.7 158.335 214.924C156.563 212.2 154.176 210.032 151.179 208.42ZM151.359 229.848C150.304 231.485 148.901 232.788 147.15 233.767C145.399 234.745 143.517 235.234 141.5 235.234C139.39 235.234 137.492 234.735 135.817 233.736C134.088 232.783 132.712 231.475 131.679 229.817C130.646 228.159 130.135 226.377 130.135 224.467C130.135 222.468 130.662 220.671 131.717 219.085C132.723 217.448 134.105 216.145 135.856 215.166C137.607 214.188 139.488 213.704 141.505 213.704C143.566 213.704 145.464 214.183 147.188 215.135C148.917 216.134 150.293 217.463 151.326 219.121C152.359 220.779 152.87 222.561 152.87 224.472C152.87 226.418 152.365 228.215 151.359 229.848Z" fill="white"/>
<path d="M183 204.206H173.915V193H164V243H173.915V212.114H183V204.206Z" fill="white"/>
<path d="M209.676 208.42C206.526 206.808 203.13 206 199.5 206C195.818 206 192.417 206.819 189.29 208.451C186.112 210.13 183.602 212.391 181.761 215.233C179.92 218.076 179 221.15 179 224.467C179 227.829 179.932 230.893 181.801 233.664C183.619 236.527 186.1 238.788 189.25 240.446C192.4 242.104 195.818 242.933 199.5 242.933C203.839 242.933 207.823 241.774 211.454 239.457V243H219.926L220 223.921C220 220.697 219.068 217.7 217.199 214.924C215.335 212.2 212.831 210.032 209.676 208.42ZM209.864 229.848C208.755 231.485 207.28 232.788 205.44 233.767C203.599 234.745 201.621 235.234 199.5 235.234C197.282 235.234 195.287 234.735 193.526 233.736C191.708 232.783 190.262 231.475 189.176 229.817C188.09 228.159 187.552 226.377 187.552 224.467C187.552 222.468 188.107 220.671 189.216 219.085C190.273 217.448 191.725 216.145 193.566 215.166C195.407 214.188 197.385 213.704 199.506 213.704C201.672 213.704 203.667 214.183 205.48 215.135C207.298 216.134 208.744 217.463 209.83 219.121C210.916 220.779 211.454 222.561 211.454 224.472C211.454 226.418 210.928 228.215 209.864 229.848Z" fill="white"/>
<path d="M235.286 215.183C236.966 214.203 238.771 213.718 240.706 213.718C243.006 213.718 245.077 214.358 246.919 215.632C248.76 216.906 250.07 218.567 250.852 220.615L259 220.682C258.4 217.953 257.226 215.451 255.479 213.171C253.684 210.942 251.499 209.188 248.922 207.914C246.345 206.64 243.606 206 240.706 206C237.347 206 234.243 206.82 231.39 208.456C228.489 210.137 226.199 212.402 224.52 215.25C222.84 218.098 222 221.178 222 224.5C222 227.869 222.85 230.938 224.556 233.714C226.215 236.582 228.479 238.847 231.353 240.508C234.227 242.169 237.347 243 240.706 243C243.695 243 246.46 242.365 248.99 241.086C251.567 239.812 253.731 238.058 255.479 235.829C257.226 233.6 258.4 231.098 259 228.318H250.925C250.143 230.366 248.818 232.037 246.955 233.337C245.093 234.632 243.012 235.282 240.706 235.282C238.682 235.282 236.862 234.782 235.255 233.781C233.596 232.827 232.276 231.516 231.285 229.855C230.294 228.194 229.804 226.409 229.804 224.495C229.804 222.493 230.31 220.693 231.322 219.104C232.282 217.468 233.607 216.163 235.286 215.183Z" fill="white"/>
<path d="M287.67 207.878C284.89 206.624 282.197 206 279.598 206C275.769 206 272.26 207.094 269.067 209.276C265.873 211.458 263.594 214.327 262.23 217.876C261.408 220.058 261 222.246 261 224.428C261 228.158 262.096 231.64 264.281 234.875C266.24 237.789 268.602 239.869 271.361 241.122C274.121 242.376 276.818 243 279.464 243C282.611 243 285.572 242.247 288.352 240.746C291.132 239.244 293.365 237.196 295.054 234.601L287.603 231.733C286.6 232.873 285.381 233.745 283.944 234.359C282.508 234.973 281.014 235.282 279.464 235.282C278.094 235.282 276.818 235.055 275.635 234.601C274.177 234.054 272.901 233.224 271.805 232.109C270.71 230.995 269.888 229.685 269.346 228.183L297.654 227.43V227.363L297.793 227.43C297.928 226.476 298 225.496 298 224.495C298 220.765 296.93 217.283 294.786 214.048C292.822 211.19 290.45 209.131 287.67 207.878ZM269.279 221.09L269.413 220.682C270.235 218.541 271.578 216.86 273.449 215.632C275.319 214.404 277.371 213.79 279.603 213.79C280.973 213.79 282.249 214.017 283.433 214.471C284.89 215.018 286.156 215.823 287.226 216.896C288.295 217.969 289.081 219.207 289.587 220.615L269.279 221.09Z" fill="white"/>
<path d="M329.208 208.367C326.185 206.7 322.95 205.866 319.497 205.866C315.278 205.866 311.489 207.052 308.128 209.428V193H300.071L300 224.982C300 228.27 300.886 231.262 302.664 233.955C304.437 236.74 306.824 238.946 309.825 240.567C312.826 242.187 316.05 243 319.503 243C323.053 243 326.315 242.156 329.289 240.463C332.263 238.817 334.623 236.569 336.374 233.717C338.125 230.864 339 227.768 339 224.433C339 221.099 338.136 217.992 336.412 215.113C334.629 212.287 332.231 210.034 329.208 208.367ZM328.92 229.575C327.914 231.174 326.582 232.427 324.929 233.344C323.276 234.255 321.466 234.716 319.497 234.716C317.578 234.716 315.778 234.26 314.104 233.344C312.424 232.433 311.108 231.185 310.146 229.611C309.189 228.037 308.705 226.313 308.705 224.438C308.705 222.564 309.183 220.83 310.146 219.23C311.108 217.63 312.413 216.377 314.066 215.46C315.719 214.549 317.529 214.088 319.497 214.088C321.466 214.088 323.287 214.544 324.967 215.46C326.647 216.418 327.963 217.687 328.925 219.261C329.882 220.835 330.366 222.559 330.366 224.433C330.361 226.261 329.877 227.975 328.92 229.575Z" fill="white"/>
<path d="M374.539 215.214C372.857 212.392 370.577 210.153 367.714 208.492C364.846 206.831 361.776 206 358.5 206C355.178 206 352.108 206.82 349.286 208.456C346.418 210.137 344.153 212.402 342.492 215.25C340.831 218.098 340 221.178 340 224.5C340 227.869 340.841 230.938 342.528 233.714C344.168 236.582 346.407 238.847 349.25 240.508C352.093 242.169 355.178 243 358.5 243C361.869 243 364.964 242.159 367.786 240.472C370.608 238.832 372.847 236.593 374.508 233.75C376.169 230.907 377 227.822 377 224.5C377 221.178 376.18 218.082 374.539 215.214ZM367.373 229.618C366.465 231.212 365.222 232.46 363.654 233.373C362.085 234.281 360.368 234.741 358.5 234.741C356.679 234.741 354.971 234.287 353.382 233.373C351.788 232.465 350.54 231.222 349.627 229.654C348.719 228.085 348.259 226.368 348.259 224.5C348.259 222.632 348.713 220.904 349.627 219.31C350.54 217.716 351.778 216.478 353.346 215.59C354.915 214.703 356.632 214.259 358.5 214.259C360.368 214.259 362.096 214.713 363.69 215.627C365.284 216.535 366.522 217.778 367.409 219.346C368.297 220.915 368.741 222.632 368.741 224.5C368.735 226.316 368.281 228.024 367.373 229.618Z" fill="white"/>
<path d="M266.785 93.3369H295.75C295.55 92.3654 295.316 91.6099 295.069 90.6505C292.781 81.7279 288.837 73.4769 283.216 65.9094C280.399 62.2876 277.313 59.0016 273.944 56.0874C272.383 54.7082 270.775 53.437 269.097 52.2257C268.909 52.0818 268.722 51.9499 268.534 51.818C268.252 51.6141 267.971 51.4102 267.677 51.2183C267.384 51.0025 267.079 50.7986 266.785 50.5947C266.68 50.5107 266.55 50.4388 266.433 50.3668C266.41 50.3548 266.398 50.3428 266.374 50.3309C264.285 48.9637 262.126 47.7164 259.873 46.5651C259.391 46.3253 258.922 46.0854 258.441 45.8576C257.96 45.6297 257.478 45.4018 256.997 45.186C256.739 45.066 256.481 44.9581 256.234 44.8502C256.199 44.8382 256.152 44.8142 256.117 44.8022C255.612 44.5863 255.119 44.3825 254.638 44.1906C254.333 44.0706 254.028 43.9507 253.723 43.8308C253.429 43.7109 253.136 43.6029 252.843 43.495C251.986 43.1832 251.153 42.8954 250.378 42.6435C249.662 42.4156 248.981 42.1998 248.371 42.0199C248.301 41.9959 248.219 41.9719 248.148 41.9479C248.019 41.9119 247.902 41.876 247.773 41.852C247.514 41.78 247.28 41.7081 247.045 41.6481C246.681 41.5522 246.341 41.4682 246.047 41.3843C246.036 41.3843 246.036 41.3843 246.024 41.3843C245.554 41.2643 245.179 41.1804 244.909 41.1204C244.745 41.0844 244.616 41.0485 244.533 41.0365C244.487 41.0245 244.451 41.0125 244.404 41.0125C240.531 40.149 236.576 39.6693 232.527 39.5614C232.445 39.5614 232.375 39.5494 232.293 39.5494C231.741 39.5374 231.189 39.5254 230.626 39.5254C218.655 39.5254 207.6 42.5596 197.448 48.5679C189.855 53.1252 183.447 58.8337 178.212 65.6936C176.311 68.1641 174.574 70.7905 172.978 73.5608C166.993 84.0305 164 95.3756 164 107.584C164 113.005 164.587 118.222 165.749 123.223C165.772 123.367 165.819 123.511 165.854 123.655C165.854 123.679 165.866 123.69 165.866 123.714C165.89 123.786 165.901 123.858 165.925 123.93C165.983 124.17 166.054 124.41 166.124 124.638C166.699 126.929 167.403 129.171 168.237 131.366C168.659 132.505 169.117 133.632 169.622 134.748C169.809 135.156 169.997 135.575 170.197 135.983C170.255 136.127 170.314 136.259 170.384 136.403L170.396 136.415C171.206 138.13 172.121 139.821 173.107 141.488C178.999 152.053 187.062 160.4 197.307 166.493C207.553 172.609 218.655 175.667 230.626 175.667C241.271 175.667 251.094 173.316 260.107 168.639C269.285 163.962 276.996 157.486 283.216 149.295C289.448 141.08 293.614 131.894 295.75 121.664H282.782C274.32 121.664 266.222 125.513 260.988 132.313C258.746 135.24 256.047 137.842 252.854 140.133C247.89 143.682 242.491 145.937 236.647 146.825C236.635 146.825 236.635 146.824 236.623 146.836C236.142 146.908 235.661 146.968 235.18 147.028C234.182 147.148 233.173 147.22 232.152 147.256C231.647 147.268 231.143 147.28 230.626 147.28C230.157 147.28 229.699 147.268 229.241 147.256C228.819 147.244 228.396 147.22 227.974 147.196C221.812 146.789 216.226 144.99 211.203 141.764C205.3 138.25 200.582 133.417 197.072 127.324C196.955 127.12 196.838 126.917 196.732 126.713C196.709 126.689 196.697 126.665 196.685 126.641C193.411 120.716 191.779 114.36 191.779 107.584C191.779 100.233 193.587 93.6247 197.19 87.7602C200.629 81.7519 205.346 76.9188 211.32 73.309C217.294 69.7231 223.725 67.9122 230.626 67.9122C233.724 67.9122 236.705 68.248 239.557 68.9316C239.78 68.9796 239.992 69.0275 240.215 69.0875C240.766 69.2314 241.329 69.3873 241.869 69.5432C242.01 69.5792 242.151 69.6392 242.292 69.6871C244.886 70.5027 247.374 71.618 249.768 73.0211C250.812 73.6328 251.81 74.2804 252.737 74.94C253.089 75.1918 253.429 75.4437 253.77 75.7075C253.899 75.8035 254.028 75.9114 254.157 76.0073C254.38 76.1752 254.591 76.3431 254.791 76.523C255.002 76.6789 255.213 76.8468 255.413 77.0387C259.931 80.8404 263.405 85.4456 265.776 90.8543C265.87 91.0702 265.964 91.2621 266.046 91.454C266.128 91.6579 266.21 91.8617 266.292 92.0416C266.351 92.1975 266.421 92.3534 266.468 92.4854C266.527 92.6293 266.574 92.7492 266.609 92.8451C266.644 92.9291 266.668 93.0011 266.691 93.061L266.785 93.3369Z" fill="url(#paint0_linear)"/>
<path opacity="0.18" d="M265.548 91.4267C265.468 91.2334 265.377 91.0401 265.286 90.8227C262.979 85.3752 259.6 80.7369 255.204 76.9079C254.998 76.7267 254.804 76.5576 254.599 76.3885C254.405 76.2073 254.199 76.0382 253.982 75.8691C253.857 75.7725 253.731 75.6638 253.605 75.5671C253.274 75.3014 252.943 75.0478 252.601 74.7941C251.699 74.1298 250.728 73.4775 249.712 72.8615C248.091 71.8952 246.321 71.0255 244.403 70.3008C244.391 70.3008 244.391 70.2887 244.38 70.2887C242.93 69.721 241.389 69.2378 239.756 68.8513L239.779 68.7426L239.79 68.6218L244.46 40.8405L244.494 40.623C244.494 40.623 244.54 40.6351 244.62 40.6472C244.7 40.6593 244.825 40.6955 244.985 40.7318C245.248 40.7922 245.613 40.8767 246.07 40.9975C246.081 40.9975 246.081 40.9975 246.093 40.9975C246.378 41.082 246.709 41.1666 247.063 41.2632C247.291 41.3236 247.52 41.3961 247.771 41.4686C247.954 41.529 248.148 41.5773 248.353 41.6377C248.947 41.8189 249.609 42.0363 250.306 42.2658C251.059 42.5194 251.87 42.8093 252.703 43.1234C252.989 43.2321 253.274 43.3408 253.56 43.4616C253.857 43.5824 254.153 43.7032 254.45 43.8239C254.918 44.0172 255.398 44.2225 255.889 44.44C255.923 44.452 255.969 44.4762 256.003 44.4883C256.243 44.597 256.494 44.7057 256.745 44.8265C257.213 45.0439 257.681 45.2734 258.15 45.5029C260.65 46.7108 263.288 48.1965 265.868 50.0083C265.891 50.0204 265.902 50.0325 265.925 50.0445C266.039 50.117 266.165 50.1895 266.268 50.274V50.2861L267.204 51.9047L266.325 90.7865L266.268 93.323C266.256 93.2747 266.199 93.1056 266.176 93.0452C266.153 92.9848 266.131 92.9124 266.096 92.8278C266.062 92.7312 266.016 92.6104 265.959 92.4654C265.914 92.3326 265.845 92.1756 265.788 92.0185" fill="url(#paint1_linear)"/>
<path d="M267.205 93.3229H295.751V0L282.97 6.37245C273.324 11.1877 267.205 21.2854 267.205 32.3654V93.3229Z" fill="url(#paint2_linear)"/>
<path d="M3.384 323H5.58L5.616 300.248L14.4 323H16.56L25.308 300.248L25.344 323H27.576V297.404H24.192L15.48 320.3L6.768 297.404H3.384V323ZM33.4567 310.076H35.6527C35.8327 307.268 37.7767 305.864 40.5487 305.864C43.3927 305.864 45.2287 307.016 45.2287 310.184V311.372L40.6207 312.236C35.7967 313.136 32.6287 314.036 32.6287 318.032C32.6287 321.524 35.3287 323.504 38.9647 323.504C42.1687 323.504 44.0047 322.316 45.4447 320.048L46.2007 323H47.4967V311.696C47.4967 305.576 45.1567 303.992 40.7287 303.992C36.5167 303.992 33.5287 306.152 33.4567 310.076ZM45.3367 313.064V315.008C45.3367 319.256 42.8167 321.632 39.1807 321.632C36.7327 321.632 34.8607 320.228 34.8607 317.924C34.8607 314.684 38.2447 314.324 43.0327 313.46L45.3367 313.064ZM52.6655 323H54.8255V315.152L56.8055 313.352L64.8695 323H67.7495L58.4975 312.056L66.9575 304.496H64.0415L54.8255 312.848V297.404H52.6655V323ZM84.0808 317.168C83.5768 319.796 81.4888 321.668 78.4648 321.668C74.3968 321.668 72.2368 318.14 72.2368 314.252H86.4208C86.4208 308.06 83.7928 303.992 78.3928 303.992C72.9568 303.992 70.0768 308.348 70.0768 313.712C70.0768 319.328 72.9568 323.468 78.4648 323.468C82.8208 323.468 85.4848 321.164 86.3128 317.168H84.0808ZM72.2728 312.416C72.5968 308.708 74.7568 305.828 78.3208 305.828C81.9208 305.828 84.0808 308.6 84.2968 312.416H72.2728ZM111.313 310.112H113.509C113.509 306.224 110.629 303.92 106.561 303.92C102.853 303.92 99.6851 305.684 99.6851 309.14C99.6851 312.956 102.637 313.712 107.749 314.792C110.161 315.296 111.781 316.196 111.781 318.176C111.781 320.552 109.405 321.704 106.849 321.704C103.609 321.704 101.413 320.048 101.269 316.952H99.1091C99.3251 321.344 102.205 323.54 106.849 323.54C110.665 323.54 114.049 321.668 114.049 318.032C114.049 314.972 111.745 313.352 108.433 312.776L105.913 312.236C103.681 311.804 101.917 310.832 101.917 308.996C101.917 306.836 103.969 305.792 106.381 305.792C109.405 305.792 111.313 307.376 111.313 310.112ZM117.602 329.552C118.25 329.66 118.682 329.696 119.33 329.696C122.138 329.696 123.506 328.508 124.766 325.448C127.502 318.464 130.13 311.48 132.902 304.496H130.67C128.654 309.824 126.674 315.152 124.694 320.48C122.606 315.152 120.59 309.824 118.538 304.496H116.234C118.682 310.652 121.13 316.808 123.614 322.964C122.498 326.06 121.598 327.824 119.078 327.824C118.574 327.824 118.178 327.752 117.602 327.644V329.552ZM137.664 304.496H136.512V323H138.672V312.056C138.672 308.456 140.904 305.864 144.252 305.864C147.6 305.864 149.004 308.06 149.004 311.48V323H151.128V311.3C151.128 306.764 149.112 303.992 144.432 303.992C141.804 303.992 139.536 305.324 138.708 307.376H138.672L137.664 304.496ZM160.283 299.708L158.123 300.788V304.496H154.847V306.26H158.123V316.808C158.123 322.1 158.771 323.324 162.263 323.324C162.875 323.324 163.379 323.252 164.099 323.18V321.308C163.451 321.38 162.983 321.416 162.443 321.416C160.427 321.416 160.283 320.084 160.283 317.6V306.26H164.099V304.496H160.283V299.708ZM168.576 323H170.736V312.632C170.736 308.384 172.716 305.864 176.316 305.864C180.096 305.864 181.104 308.456 181.104 312.236V323H183.228V312.056C183.228 306.692 181.5 303.992 176.496 303.992C173.94 303.992 171.816 305.216 170.772 307.304L170.736 297.404H168.576V323ZM202.03 317.168C201.526 319.796 199.438 321.668 196.414 321.668C192.346 321.668 190.186 318.14 190.186 314.252H204.37C204.37 308.06 201.742 303.992 196.342 303.992C190.906 303.992 188.026 308.348 188.026 313.712C188.026 319.328 190.906 323.468 196.414 323.468C200.77 323.468 203.434 321.164 204.262 317.168H202.03ZM190.222 312.416C190.546 308.708 192.706 305.828 196.27 305.828C199.87 305.828 202.03 308.6 202.246 312.416H190.222ZM212.068 299.708L209.908 300.788V304.496H206.632V306.26H209.908V316.808C209.908 322.1 210.556 323.324 214.048 323.324C214.66 323.324 215.164 323.252 215.884 323.18V321.308C215.236 321.38 214.768 321.416 214.228 321.416C212.212 321.416 212.068 320.084 212.068 317.6V306.26H215.884V304.496H212.068V299.708ZM220.289 323H222.485V304.496H220.289V323ZM220.217 300.788H222.557V297.404H220.217V300.788ZM243.524 310.544C243.128 306.476 240.068 303.992 236.036 303.992C230.744 303.992 227.612 308.168 227.612 313.784C227.612 319.328 230.744 323.504 236.072 323.504C240.212 323.504 243.02 320.912 243.668 316.484H241.472C241.184 319.472 238.916 321.632 236.072 321.632C232.076 321.632 229.772 318.032 229.772 313.712C229.772 309.464 232.112 305.9 236.036 305.9C238.916 305.9 240.896 307.772 241.292 310.544H243.524ZM271.202 323H272.534V297.404H270.374L270.338 307.808C269.258 305.288 266.918 303.992 264.182 303.992C259.106 303.992 256.19 308.24 256.19 313.82C256.19 319.292 259.106 323.504 264.182 323.504C266.846 323.504 269.222 322.136 270.446 319.76H270.482L271.202 323ZM264.326 305.9C268.502 305.9 270.41 309.392 270.41 313.748C270.41 318.068 268.43 321.632 264.254 321.632C260.438 321.632 258.35 318.032 258.35 313.748C258.35 309.464 260.438 305.9 264.326 305.9ZM277.898 310.076H280.094C280.274 307.268 282.218 305.864 284.99 305.864C287.834 305.864 289.67 307.016 289.67 310.184V311.372L285.062 312.236C280.238 313.136 277.07 314.036 277.07 318.032C277.07 321.524 279.77 323.504 283.406 323.504C286.61 323.504 288.446 322.316 289.886 320.048L290.642 323H291.938V311.696C291.938 305.576 289.598 303.992 285.17 303.992C280.958 303.992 277.97 306.152 277.898 310.076ZM289.778 313.064V315.008C289.778 319.256 287.258 321.632 283.622 321.632C281.174 321.632 279.302 320.228 279.302 317.924C279.302 314.684 282.686 314.324 287.474 313.46L289.778 313.064ZM300.275 299.708L298.115 300.788V304.496H294.839V306.26H298.115V316.808C298.115 322.1 298.763 323.324 302.255 323.324C302.867 323.324 303.371 323.252 304.091 323.18V321.308C303.443 321.38 302.975 321.416 302.435 321.416C300.419 321.416 300.275 320.084 300.275 317.6V306.26H304.091V304.496H300.275V299.708ZM307.992 310.076H310.188C310.368 307.268 312.312 305.864 315.084 305.864C317.928 305.864 319.764 307.016 319.764 310.184V311.372L315.156 312.236C310.332 313.136 307.164 314.036 307.164 318.032C307.164 321.524 309.864 323.504 313.5 323.504C316.704 323.504 318.54 322.316 319.98 320.048L320.736 323H322.032V311.696C322.032 305.576 319.692 303.992 315.264 303.992C311.052 303.992 308.064 306.152 307.992 310.076ZM319.872 313.064V315.008C319.872 319.256 317.352 321.632 313.716 321.632C311.268 321.632 309.396 320.228 309.396 317.924C309.396 314.684 312.78 314.324 317.568 313.46L319.872 313.064ZM336.187 310.076H338.383C338.563 307.268 340.507 305.864 343.279 305.864C346.123 305.864 347.959 307.016 347.959 310.184V311.372L343.351 312.236C338.527 313.136 335.359 314.036 335.359 318.032C335.359 321.524 338.059 323.504 341.695 323.504C344.899 323.504 346.735 322.316 348.175 320.048L348.931 323H350.227V311.696C350.227 305.576 347.887 303.992 343.459 303.992C339.247 303.992 336.259 306.152 336.187 310.076ZM348.067 313.064V315.008C348.067 319.256 345.547 321.632 341.911 321.632C339.463 321.632 337.591 320.228 337.591 317.924C337.591 314.684 340.975 314.324 345.763 313.46L348.067 313.064ZM364.922 323H367.082V313.1C367.082 308.384 369.746 306.224 373.454 306.224C373.598 306.224 373.778 306.26 373.958 306.26V304.136C370.502 304.136 368.198 305.324 367.046 308.132L366.002 304.496H364.922V323ZM390.432 317.168C389.928 319.796 387.84 321.668 384.816 321.668C380.748 321.668 378.588 318.14 378.588 314.252H392.772C392.772 308.06 390.144 303.992 384.744 303.992C379.308 303.992 376.428 308.348 376.428 313.712C376.428 319.328 379.308 323.468 384.816 323.468C389.172 323.468 391.836 321.164 392.664 317.168H390.432ZM378.624 312.416C378.948 308.708 381.108 305.828 384.672 305.828C388.272 305.828 390.432 308.6 390.648 312.416H378.624ZM396.726 310.076H398.922C399.102 307.268 401.046 305.864 403.818 305.864C406.662 305.864 408.498 307.016 408.498 310.184V311.372L403.89 312.236C399.066 313.136 395.898 314.036 395.898 318.032C395.898 321.524 398.598 323.504 402.234 323.504C405.438 323.504 407.274 322.316 408.714 320.048L409.47 323H410.766V311.696C410.766 305.576 408.426 303.992 403.998 303.992C399.786 303.992 396.798 306.152 396.726 310.076ZM408.606 313.064V315.008C408.606 319.256 406.086 321.632 402.45 321.632C400.002 321.632 398.13 320.228 398.13 317.924C398.13 314.684 401.514 314.324 406.302 313.46L408.606 313.064ZM415.863 323H418.023V297.404H415.863V323ZM424.582 323H426.778V304.496H424.582V323ZM424.51 300.788H426.85V297.404H424.51V300.788ZM436.189 299.708L434.029 300.788V304.496H430.753V306.26H434.029V316.808C434.029 322.1 434.677 323.324 438.169 323.324C438.781 323.324 439.285 323.252 440.005 323.18V321.308C439.357 321.38 438.889 321.416 438.349 321.416C436.333 321.416 436.189 320.084 436.189 317.6V306.26H440.005V304.496H436.189V299.708ZM443.114 329.552C443.762 329.66 444.194 329.696 444.842 329.696C447.65 329.696 449.018 328.508 450.278 325.448C453.014 318.464 455.642 311.48 458.414 304.496H456.182C454.166 309.824 452.186 315.152 450.206 320.48C448.118 315.152 446.102 309.824 444.05 304.496H441.746C444.194 310.652 446.642 316.808 449.126 322.964C448.01 326.06 447.11 327.824 444.59 327.824C444.086 327.824 443.69 327.752 443.114 327.644V329.552Z" fill="white"/>
<defs>
<linearGradient id="paint0_linear" x1="164" y1="107.594" x2="295.75" y2="107.594" gradientUnits="userSpaceOnUse">
<stop stop-color="#01DFC8"/>
<stop offset="1" stop-color="#03AFF1"/>
</linearGradient>
<linearGradient id="paint1_linear" x1="239.756" y1="66.9712" x2="267.204" y2="66.9712" gradientUnits="userSpaceOnUse">
<stop stop-color="#01DFC8" stop-opacity="0.3"/>
<stop offset="1"/>
</linearGradient>
<linearGradient id="paint2_linear" x1="311.048" y1="26.2506" x2="255.21" y2="80.1682" gradientUnits="userSpaceOnUse">
<stop offset="0.3786" stop-color="#01DFC8"/>
<stop offset="0.7139" stop-color="#02C7DD"/>
<stop offset="1" stop-color="#03AFF1"/>
</linearGradient>
</defs>
</svg>
