<?xml version="1.0" encoding="utf-8"?>
<!-- Generator: Adobe Illustrator 24.3.0, SVG Export Plug-In . SVG Version: 6.00 Build 0)  -->
<svg version="1.1" id="Layer_1" xmlns="http://www.w3.org/2000/svg" xmlns:xlink="http://www.w3.org/1999/xlink" x="0px" y="0px"
	 viewBox="0 0 34 34" style="enable-background:new 0 0 34 34;" xml:space="preserve">
<style type="text/css">
	.st0{fill:url(#SVGID_1_);}
</style>
<linearGradient id="SVGID_1_" gradientUnits="userSpaceOnUse" x1="0.5117" y1="19" x2="33.4459" y2="19" gradientTransform="matrix(1 0 0 -1 0 36)">
	<stop  offset="0" style="stop-color:#03AFF1"/>
	<stop  offset="1" style="stop-color:#01DFC8"/>
</linearGradient>
<path class="st0" d="M33.5,16.9c0-1.1-0.4-2.1-0.9-2.9c-0.7-0.9-1.5-1.6-2.6-2c-0.4-0.2-0.9-0.3-1.3-0.3c-1.1-2.4-2.9-4.4-5.1-5.7
	c-0.4-0.2-0.8-0.4-1.2-0.7c-0.1-0.9-0.4-1.8-0.9-2.5c-0.7-0.9-1.5-1.6-2.6-2c-2-0.8-4.3-0.2-5.7,1.4C12.4,3,11.9,4,11.8,4.9
	c0,0.1,0,0.3,0,0.4C9.3,6.4,7.3,8.2,6,10.5c-0.2,0.4-0.4,0.8-0.6,1.2c-1.4,0.2-2.7,0.8-3.6,1.9c-0.7,0.9-1.1,2-1.2,3.1
	c-0.1,1,0.2,2.1,0.7,3c0.5,0.9,1.3,1.6,2.2,2c0.6,0.3,1.2,0.4,1.8,0.5c1.1,2.4,2.9,4.5,5.2,5.8c0.4,0.2,0.8,0.4,1.2,0.6
	c0.1,0.9,0.4,1.8,0.9,2.5c0.6,0.9,1.5,1.6,2.5,2c0.6,0.2,1.2,0.4,1.9,0.4c0.4,0,0.8,0,1.2-0.1c2.2-0.5,3.9-2.4,4.1-4.7
	c2.4-1.1,4.4-2.9,5.7-5.2c0.2-0.4,0.4-0.8,0.7-1.2c0.2,0,0.5,0,0.7-0.1c2.3-0.5,4-2.7,4-5.1L33.5,16.9C33.5,16.9,33.5,17,33.5,16.9z
	 M14.8,27.9c0-0.2,0.1-0.4,0.2-0.5c0.1-0.2,0.2-0.3,0.2-0.4c0,0,0,0,0-0.1c0-0.1,0.1-0.2,0.2-0.2c0.1-0.1,0.2-0.2,0.2-0.2l0,0
	c0.2-0.1,0.3-0.2,0.5-0.3c0.2-0.1,0.4-0.1,0.5-0.2c0.2,0,0.4,0,0.6,0c0.2,0,0.4,0.1,0.5,0.2c0.2,0.1,0.3,0.2,0.5,0.3l0,0
	c0.1,0.1,0.2,0.1,0.2,0.2c0.1,0.1,0.1,0.1,0.2,0.2l0.1,0.1c0.1,0.1,0.2,0.3,0.2,0.4c0.1,0.2,0.1,0.4,0.2,0.5c0,0.1,0,0.2,0,0.3
	c0,0.1,0,0.2,0,0.3c0,0.2-0.1,0.4-0.2,0.6c-0.1,0.2-0.2,0.3-0.2,0.4c0,0,0,0.1-0.1,0.1c-0.1,0.1-0.1,0.2-0.2,0.2
	c-0.1,0.1-0.1,0.1-0.2,0.2c0,0,0,0-0.1,0c-0.2,0.1-0.3,0.2-0.4,0.2c-0.2,0.1-0.4,0.1-0.5,0.2c-0.2,0-0.4,0-0.6,0
	c-0.2,0-0.4-0.1-0.5-0.2c-0.2-0.1-0.3-0.2-0.4-0.2c0,0,0,0-0.1-0.1c-0.1-0.1-0.2-0.1-0.2-0.2s-0.1-0.1-0.2-0.2c0,0,0,0,0-0.1
	c-0.1-0.2-0.2-0.3-0.2-0.4c-0.1-0.2-0.1-0.4-0.2-0.5C14.7,28.3,14.7,28.1,14.8,27.9z M24.8,22.9c-0.1,0.1-0.1,0.2-0.2,0.2
	c0,0-0.1,0.1-0.1,0.1c-0.4,0.4-0.7,0.8-1.1,1.2c-0.1,0.1-0.2,0.2-0.3,0.2l-0.1,0l0,0l0,0c-0.2,0.2-0.5,0.3-0.7,0.5
	c-0.2,0.2-0.5,0.3-0.7,0.4c-0.6-1.1-1.7-2-3-2.5c-2-0.7-4.5,0-5.7,1.7c-0.2,0.2-0.4,0.5-0.5,0.7c-0.2-0.1-0.4-0.2-0.5-0.3
	c-0.2-0.1-0.4-0.3-0.7-0.4c0,0-0.1,0-0.1-0.1c-0.1-0.1-0.2-0.1-0.2-0.2c0,0-0.1-0.1-0.1-0.1c-0.4-0.4-0.8-0.7-1.2-1.1
	c-0.1-0.1-0.2-0.2-0.2-0.3l0-0.1l0,0l0,0c-0.2-0.2-0.3-0.5-0.5-0.7c-0.1-0.2-0.3-0.4-0.4-0.7c1.6-0.9,2.6-2.6,2.7-4.5
	c0,0,0-0.1,0-0.2c0-1.1-0.4-2.2-1-3c-0.5-0.7-1.1-1.2-1.8-1.6c0.1-0.2,0.2-0.3,0.3-0.5c0.1-0.2,0.3-0.4,0.4-0.7c0,0,0-0.1,0.1-0.1
	c0.1-0.1,0.1-0.2,0.2-0.2c0,0,0.1-0.1,0.1-0.1c0.4-0.4,0.7-0.8,1.1-1.2c0.1-0.1,0.2-0.2,0.3-0.2l0.1,0l0,0l0,0
	c0.2-0.2,0.5-0.3,0.7-0.5c0.2-0.1,0.4-0.3,0.7-0.4c0.5,0.9,1.3,1.7,2.2,2.1c0.8,0.4,1.6,0.6,2.5,0.6c0.3,0,0.6,0,0.9-0.1
	c1.1-0.2,2.2-0.8,3-1.6c0.3-0.3,0.5-0.6,0.7-1c0.2,0.1,0.3,0.2,0.5,0.3c0.2,0.1,0.4,0.3,0.7,0.4c0,0,0.1,0,0.1,0.1
	c0.1,0.1,0.2,0.1,0.2,0.2c0,0,0.1,0.1,0.1,0.1c0.4,0.4,0.8,0.7,1.2,1.1c0.1,0.1,0.2,0.2,0.2,0.3l0,0.1l0,0l0,0
	c0.2,0.2,0.3,0.5,0.5,0.7c0.1,0.2,0.3,0.4,0.4,0.7c-0.5,0.3-1.1,0.7-1.4,1.2c-0.7,0.9-1.2,2-1.2,3.1c-0.1,1.1,0.2,2.1,0.8,3
	c0.5,0.8,1.2,1.4,2,1.9c-0.1,0.2-0.2,0.3-0.3,0.5c-0.1,0.2-0.3,0.4-0.4,0.7C24.9,22.8,24.8,22.8,24.8,22.9z M6.1,14.7
	c0.2,0,0.4,0.1,0.6,0.2C6.9,15,7,15,7.1,15.1l0.1,0c0.1,0.1,0.2,0.1,0.2,0.2c0.1,0.1,0.1,0.1,0.2,0.2l0.1,0.1
	c0.1,0.1,0.2,0.3,0.2,0.4C8,16.2,8,16.4,8.1,16.6c0,0.1,0,0.2,0,0.3c0,0.1,0,0.2,0,0.3c0,0.2-0.1,0.4-0.2,0.5
	c-0.1,0.2-0.2,0.3-0.3,0.5l0,0c-0.1,0.1-0.1,0.2-0.2,0.2c-0.1,0.1-0.1,0.1-0.2,0.2l-0.1,0.1C7,18.9,6.9,19,6.7,19.1
	c-0.2,0.1-0.4,0.1-0.5,0.2c-0.2,0-0.4,0-0.6,0c-0.2,0-0.4-0.1-0.5-0.2c-0.2-0.1-0.3-0.2-0.4-0.2c0,0,0,0-0.1-0.1
	c-0.1-0.1-0.2-0.1-0.2-0.2c-0.1-0.1-0.1-0.1-0.2-0.2c0,0,0,0,0-0.1c-0.1-0.2-0.2-0.3-0.2-0.4c-0.1-0.2-0.2-0.4-0.2-0.5
	c0-0.2,0-0.4,0-0.6c0-0.2,0.1-0.4,0.2-0.6c0.1-0.2,0.2-0.3,0.2-0.4c0,0,0,0,0.1-0.1c0.1-0.1,0.1-0.2,0.2-0.2
	c0.1-0.1,0.1-0.1,0.2-0.2c0,0,0,0,0.1,0C4.7,15,4.8,14.9,5,14.9c0.2-0.1,0.4-0.1,0.5-0.2C5.7,14.7,5.9,14.7,6.1,14.7z M19.2,5.8
	c0,0.1,0,0.2,0,0.3c0,0.2-0.1,0.4-0.2,0.5C19,6.8,18.9,7,18.8,7.1c0,0,0,0,0,0.1c-0.1,0.1-0.1,0.2-0.2,0.2c-0.1,0.1-0.2,0.1-0.2,0.2
	l0,0c-0.2,0.1-0.3,0.2-0.5,0.3C17.7,7.9,17.5,8,17.3,8c-0.2,0-0.4,0-0.6,0c-0.2,0-0.4-0.1-0.5-0.2c-0.2-0.1-0.3-0.2-0.5-0.3l0,0
	c-0.1-0.1-0.2-0.1-0.2-0.2c-0.1-0.1-0.1-0.1-0.2-0.2l-0.1-0.1C15.1,7,15,6.8,14.9,6.7c-0.1-0.2-0.1-0.4-0.2-0.5c0-0.2,0-0.4,0-0.6
	c0-0.2,0.1-0.4,0.2-0.5c0.1-0.2,0.2-0.3,0.2-0.4c0,0,0,0,0.1-0.1c0.1-0.1,0.1-0.2,0.2-0.2c0.1-0.1,0.1-0.1,0.2-0.2c0,0,0,0,0.1,0
	c0.2-0.1,0.3-0.2,0.4-0.2c0.2-0.1,0.4-0.1,0.5-0.2c0.2,0,0.4,0,0.6,0c0.2,0,0.4,0.1,0.6,0.2C18,3.8,18.1,3.9,18.3,4c0,0,0,0,0.1,0.1
	c0.1,0.1,0.2,0.1,0.2,0.2c0.1,0.1,0.1,0.1,0.2,0.2c0,0,0,0,0,0.1C18.9,4.7,19,4.8,19.1,5c0.1,0.2,0.1,0.4,0.2,0.5
	C19.2,5.6,19.2,5.7,19.2,5.8z M27.9,19.2c-0.2,0-0.4-0.1-0.5-0.2c-0.2-0.1-0.3-0.2-0.5-0.3l0,0c-0.1-0.1-0.2-0.1-0.2-0.2
	c-0.1-0.1-0.1-0.1-0.2-0.2l0-0.1c-0.1-0.1-0.2-0.3-0.2-0.4c-0.1-0.2-0.1-0.4-0.2-0.5c0-0.2,0-0.4,0-0.6c0-0.2,0.1-0.4,0.2-0.5
	c0.1-0.2,0.2-0.3,0.2-0.4c0,0,0,0,0-0.1c0-0.1,0.1-0.2,0.2-0.2c0.1-0.1,0.2-0.1,0.2-0.2l0,0c0.2-0.1,0.3-0.2,0.5-0.3
	c0.2-0.1,0.4-0.1,0.5-0.2c0.2,0,0.4,0,0.6,0c0.2,0,0.4,0.1,0.5,0.2c0.2,0.1,0.3,0.2,0.4,0.2c0,0,0.1,0,0.1,0.1
	c0.1,0.1,0.2,0.1,0.2,0.2c0.1,0.1,0.1,0.1,0.2,0.2c0,0,0,0,0,0.1c0.1,0.2,0.2,0.3,0.2,0.4c0.1,0.2,0.1,0.4,0.2,0.5
	c0,0.1,0,0.2,0,0.4c0,0.1,0,0.2,0,0.3c0,0.2-0.1,0.4-0.2,0.6c-0.1,0.2-0.2,0.3-0.2,0.4c0,0,0,0.1-0.1,0.1c-0.1,0.1-0.1,0.2-0.2,0.2
	c-0.1,0.1-0.1,0.1-0.2,0.2c0,0,0,0-0.1,0c-0.2,0.1-0.3,0.2-0.4,0.2c-0.2,0.1-0.4,0.1-0.5,0.2C28.3,19.2,28.1,19.2,27.9,19.2z"/>
</svg>
